<?xml version="1.0" encoding="utf-8"?>
<!-- Generator: Adobe Illustrator 26.0.3, SVG Export Plug-In . SVG Version: 6.00 Build 0)  -->
<svg version="1.1" id="图层_1" xmlns="http://www.w3.org/2000/svg" xmlns:xlink="http://www.w3.org/1999/xlink" x="0px" y="0px"
	 viewBox="0 0 200 200" style="enable-background:new 0 0 200 200;" xml:space="preserve">
<style type="text/css">
	.st0{fill:#CDCDCD;}
	.st1{fill:#ed4a4a;}
</style>
<path class="st0" d="M162.6,182.5h-126c-10.3,0-18.7-8.4-18.8-18.7c0-3,0.7-5.9,2.1-8.6l11.7-22.6V85.4c0-37.7,30.5-68.2,68.2-68.2
	S168,47.7,168,85.4v48l11.3,21.6c4.8,9.2,1.3,20.5-7.9,25.3c-2.7,1.4-5.7,2.1-8.7,2.1L162.6,182.5L162.6,182.5z M37,163.5h125.3
	l-11.2-21.4c-1.4-2.7-2.2-5.7-2.2-8.7v-48c0-27.2-22.1-49.3-49.3-49.3S50.4,58.2,50.4,85.4v47.3c0,3-0.7,5.9-2.1,8.5L37,163.5z"/>
<path class="st0" d="M99.7,33.6c-5.2,0-9.5-4.2-9.5-9.5V9.6c0-5.2,4.2-9.5,9.5-9.5c5.2,0,9.5,4.2,9.5,9.5v14.6
	C109.1,29.4,104.9,33.6,99.7,33.6z M118.2,180.8c0.4,10.2-7.5,18.8-17.7,19.2s-18.8-7.5-19.2-17.7c0-0.5,0-1,0-1.5"/>
<circle id="bellRedDot" class="st1" style="opacity:0;" cx="158.3" cy="35.1" r="21.1"/>
</svg>
