<?xml version="1.0" encoding="utf-8"?>
<!-- Generator: Adobe Illustrator 26.0.3, SVG Export Plug-In . SVG Version: 6.00 Build 0)  -->
<svg version="1.1" id="图层_1" xmlns="http://www.w3.org/2000/svg" xmlns:xlink="http://www.w3.org/1999/xlink" x="0px" y="0px"
	 viewBox="0 0 200 223.5" style="enable-background:new 0 0 200 223.5;" xml:space="preserve">
<style type="text/css">
	.st0{fill:none;stroke:#CDCDCD;stroke-width:12;stroke-miterlimit:10;}
</style>
<path class="st0" d="M78.1,30.3c0,12.1,9.8,21.9,21.9,21.9c12.1,0,21.9-9.8,21.9-21.9c0-12.1-9.8-21.9-21.9-21.9
	C87.9,8.4,78.1,18.2,78.1,30.3C78.1,30.3,78.1,30.3,78.1,30.3z"/>
<path class="st0" d="M170,65.4H30.4c-0.4,0-0.7,0-1,0c-0.4,0-0.7,0.1-1,0.2s-0.7,0.2-1,0.2c-0.3,0.1-0.7,0.2-1,0.4s-0.6,0.3-0.9,0.4
	c-0.3,0.2-0.6,0.4-0.9,0.5c-0.3,0.2-0.5,0.4-0.8,0.6s-0.5,0.5-0.7,0.7c-0.2,0.2-0.5,0.5-0.7,0.8c-0.2,0.3-0.4,0.5-0.6,0.8
	c-0.2,0.3-0.4,0.6-0.5,0.9c-0.2,0.3-0.3,0.6-0.4,0.9c-0.1,0.3-0.2,0.6-0.4,1c-0.1,0.3-0.2,0.7-0.2,1c-0.1,0.4-0.1,0.7-0.2,1
	c0,0.4,0,0.7,0,1c0,0.4,0,0.7,0,1c0,0.4,0.1,0.7,0.2,1c0.1,0.4,0.2,0.7,0.2,1c0.1,0.3,0.2,0.7,0.4,1c0.1,0.3,0.3,0.6,0.4,0.9
	c0.2,0.3,0.4,0.6,0.5,0.9c0.2,0.3,0.4,0.5,0.6,0.8s0.4,0.5,0.7,0.8c0.2,0.2,0.5,0.5,0.7,0.7c0.3,0.2,0.5,0.4,0.8,0.6
	c0.3,0.2,0.6,0.4,0.9,0.5c0.3,0.2,0.6,0.3,0.9,0.4c0.3,0.1,0.6,0.2,1,0.4c0.3,0.1,0.7,0.2,1,0.2c0.4,0.1,0.7,0.1,1,0.2
	c0.4,0,0.7,0,1,0h39.3c2.7,0,5.8,1.2,7.5,5.9c2.1,5.4,1.1,15.8-0.2,23.9l-1.7,9.5c0,0,0,0.1,0,0.1l-13.4,76.8
	c-0.1,0.4-0.1,0.7-0.1,1.1c0,0.4,0,0.7,0,1.1c0,0.4,0,0.7,0.1,1.1c0,0.4,0.1,0.7,0.2,1c0.1,0.4,0.2,0.7,0.3,1s0.2,0.7,0.4,1
	c0.2,0.3,0.3,0.6,0.5,0.9c0.2,0.3,0.4,0.6,0.5,0.9c0.2,0.3,0.4,0.5,0.6,0.8c0.2,0.3,0.5,0.5,0.7,0.8c0.2,0.2,0.5,0.5,0.8,0.7
	s0.5,0.4,0.9,0.6c0.3,0.2,0.6,0.4,0.9,0.5s0.6,0.3,0.9,0.4c0.3,0.1,0.7,0.2,1,0.4c0.4,0.1,0.7,0.2,1,0.2s0.7,0.1,1,0.1
	c0.4,0,0.7,0,1,0c0.4,0,0.7,0,1-0.1c0.4,0,0.7-0.1,1-0.2s0.7-0.2,1-0.3c0.3-0.1,0.7-0.2,1-0.4l0.9-0.5c0.3-0.2,0.6-0.4,0.9-0.5
	s0.5-0.4,0.8-0.7c0.3-0.2,0.5-0.5,0.7-0.7c0.2-0.3,0.5-0.5,0.7-0.8c0.2-0.3,0.4-0.5,0.6-0.9c0.2-0.3,0.4-0.6,0.5-0.9s0.3-0.6,0.4-1
	c0.1-0.3,0.2-0.7,0.3-1c0.1-0.4,0.2-0.7,0.2-1l9.2-53.4c0,0,3-12.7,8.4-12.7c5.5,0,8.4,12.7,8.4,12.7l9.2,53.4c0,0.4,0.1,0.7,0.2,1
	c0.1,0.4,0.2,0.7,0.3,1c0.1,0.4,0.3,0.7,0.4,1c0.2,0.3,0.3,0.6,0.5,0.9c0.2,0.3,0.4,0.6,0.6,0.9c0.2,0.3,0.4,0.5,0.7,0.8
	c0.2,0.3,0.5,0.5,0.7,0.7c0.3,0.2,0.5,0.4,0.8,0.7c0.3,0.2,0.6,0.4,0.9,0.5c0.3,0.2,0.6,0.4,0.9,0.5c0.3,0.2,0.6,0.3,1,0.4
	c0.3,0.1,0.7,0.2,1,0.3c0.4,0.1,0.7,0.1,1,0.2c0.4,0,0.7,0.1,1.1,0.1c0.4,0,0.7,0,1.1,0c0.4,0,0.7-0.1,1-0.1c0.4-0.1,0.7-0.2,1-0.2
	c0.4-0.1,0.7-0.2,1-0.4c0.3-0.1,0.6-0.3,0.9-0.4s0.6-0.4,0.9-0.5s0.6-0.4,0.9-0.6c0.3-0.2,0.5-0.5,0.8-0.7c0.2-0.2,0.5-0.5,0.7-0.8
	s0.4-0.5,0.6-0.8s0.4-0.6,0.5-0.9l0.5-0.9c0.1-0.3,0.3-0.7,0.4-1c0.1-0.4,0.2-0.7,0.3-1s0.1-0.7,0.2-1.1s0-0.7,0-1.1s0-0.7,0-1.1
	s-0.1-0.7-0.2-1.1l-13.4-76.8c0,0,0-0.1,0-0.1l-1.7-9.5c-1.3-8.1-2.3-18.5-0.2-23.9c1.8-4.6,5-5.9,7.4-5.9h39.4c0.4,0,0.7,0,1,0
	c0.4,0,0.7-0.1,1-0.2c0.4-0.1,0.7-0.2,1-0.2c0.3-0.1,0.7-0.2,1-0.4c0.3-0.1,0.6-0.3,0.9-0.4s0.6-0.4,0.9-0.5s0.5-0.4,0.8-0.6
	c0.3-0.2,0.5-0.5,0.7-0.7c0.2-0.2,0.5-0.5,0.7-0.8s0.4-0.5,0.6-0.8s0.4-0.6,0.5-0.9c0.2-0.3,0.3-0.6,0.4-0.9c0.1-0.3,0.2-0.6,0.4-1
	c0.1-0.4,0.2-0.7,0.2-1c0.1-0.4,0.1-0.7,0.2-1c0-0.4,0-0.7,0-1c0-0.4,0-0.7,0-1c0-0.4-0.1-0.7-0.2-1c-0.1-0.4-0.2-0.7-0.2-1
	c-0.1-0.3-0.2-0.7-0.4-1c-0.1-0.3-0.3-0.6-0.4-0.9s-0.4-0.6-0.5-0.9c-0.2-0.3-0.4-0.5-0.6-0.8c-0.2-0.3-0.4-0.5-0.7-0.8
	c-0.2-0.2-0.5-0.5-0.7-0.7c-0.3-0.2-0.5-0.4-0.8-0.6c-0.3-0.2-0.6-0.4-0.9-0.5c-0.3-0.2-0.6-0.3-0.9-0.4s-0.6-0.2-1-0.4
	c-0.3-0.1-0.7-0.2-1-0.2c-0.4-0.1-0.7-0.1-1-0.2C170.7,65.4,170.4,65.4,170,65.4L170,65.4z"/>
</svg>
