<svg width="46" height="46" viewBox="0 0 46 46" fill="none" xmlns="http://www.w3.org/2000/svg">
<path d="M15.4981 29.819H15.0579V31.9663H30.9422V29.3833H15.4981V29.819Z" fill="#49AA39"/>
<path d="M38.4262 6.82383C37.8107 6.2084 36.9887 5.87148 36.1082 5.87148H27.1553C26.6836 4.44297 25.5156 3.35586 24.0377 2.99199C23.6963 2.90664 23.3459 2.86621 22.9955 2.86621C21.0908 2.86621 19.4287 4.08359 18.8402 5.87148H9.89177C8.0949 5.87148 6.63044 7.33145 6.62146 9.12832V39.8773C6.62146 41.6697 8.08142 43.1297 9.8738 43.1297H36.1217C37.914 43.1297 39.374 41.6697 39.374 39.8729V9.13281C39.3785 8.25684 39.0416 7.43926 38.4262 6.82383ZM9.51892 40.2277C9.42459 40.1334 9.37517 40.0076 9.37517 39.8729V9.1373C9.37966 8.85879 9.61326 8.62969 9.89177 8.62969H14.1189V12.3133C14.1189 13.5891 15.1566 14.6268 16.4324 14.6268H29.5586C30.8344 14.6268 31.872 13.5891 31.872 12.3133V8.62969H36.1172C36.3912 8.62969 36.6113 8.8543 36.6113 9.13281V39.8773C36.6113 40.1469 36.3822 40.3805 36.1127 40.3805H9.8738C9.73904 40.376 9.61326 40.3221 9.51892 40.2277ZM21.3783 8.62969V7.25059C21.3783 6.35664 22.106 5.62891 23 5.62891C23.8939 5.62891 24.6217 6.35664 24.6217 7.25059V8.62969H29.1228V11.873C24.9676 11.873 21.832 11.8686 19.7207 11.8686H16.8771V8.6252H21.3783V8.62969Z" fill="#49AA39"/>
<path d="M15.0579 24.2669H30.9377V26.8544H15.0579V24.2669ZM15.0579 19.1548H30.9377V21.7423H15.0579V19.1548Z" fill="#49AA39"/>
</svg>
