<?xml version="1.0" encoding="utf-8"?>
<!-- Generator: Adobe Illustrator 26.0.3, SVG Export Plug-In . SVG Version: 6.00 Build 0)  -->
<svg version="1.1" id="图层_1" xmlns="http://www.w3.org/2000/svg" xmlns:xlink="http://www.w3.org/1999/xlink" x="0px" y="0px"
	 viewBox="0 0 200 200" style="enable-background:new 0 0 200 200;" xml:space="preserve">
<style type="text/css">
	.st0{fill:#49AA39;}
</style>
<path class="st0" d="M127.7,72.3l-38.5,38.5L72.3,93.8c-3.1-1.5-7.7-1.5-10.8,0c-3.1,3.1-3.1,9.2,0,12.3l21.5,21.5
	c3.1,3.1,7.7,3.1,10.8,0l44.6-44.6c3.1-3.1,3.1-7.7,0-10.8C135.4,69.2,130.8,69.2,127.7,72.3 M100,184.6
	c-46.2,0-84.6-38.5-84.6-84.6S53.8,15.4,100,15.4s84.6,38.5,84.6,84.6S146.2,184.6,100,184.6 M100,0C44.6,0,0,44.6,0,100
	s44.6,100,100,100s100-44.6,100-100S155.4,0,100,0"/>
</svg>
