<?xml version="1.0" encoding="utf-8"?>
<!-- Generator: Adobe Illustrator 26.0.3, SVG Export Plug-In . SVG Version: 6.00 Build 0)  -->
<svg version="1.1" id="图层_1" xmlns="http://www.w3.org/2000/svg" xmlns:xlink="http://www.w3.org/1999/xlink" x="0px" y="0px"
	 viewBox="0 0 200 223.5" style="enable-background:new 0 0 200 223.5;" xml:space="preserve">
<style type="text/css">
	.st0{fill:none;stroke:#CDCDCD;stroke-width:12;stroke-linejoin:round;stroke-miterlimit:10;}
	.st1{fill:none;stroke:#CDCDCD;stroke-width:10;stroke-linecap:round;stroke-linejoin:round;stroke-miterlimit:10;}
</style>
<g>
	<path class="st0" d="M10.5,77.6l16-11.1c0,0,54.3,48.4,67.5,55.4c0,0,15.4-39.3,62.2-53l35.1,50.7c0,0-3.9,14.3-33,31
		S106.2,164.7,101,167c-7.2,3.2-9.6,12.7-20.7,10.4c-9.5-2-10.4-14.8-11.9-17.9c-1.5-3.1-17.5-10.4-34.8-35.4S10.5,77.6,10.5,77.6z"
		/>
	<path class="st1" d="M176.4,98.2c0,0-23.5,40.1-62.6,30"/>
</g>
</svg>
