<svg width="33" height="33" viewBox="0 0 33 33" fill="none" xmlns="http://www.w3.org/2000/svg">
<g clip-path="url(#clip0_127_127)">
<path d="M14.6063 30.7319C14.2244 31.1462 13.83 31.5849 13.4241 32.012C13.2126 32.2471 12.9832 32.465 12.7382 32.6636C12.2935 33.0069 11.6784 32.8963 11.2771 32.4774C10.4871 31.6489 9.67654 30.8355 8.87627 30.0163C8.34008 29.467 7.77646 28.9422 7.27571 28.3593C7.17046 28.2404 7.09816 28.0953 7.06622 27.9386C7.03427 27.782 7.04384 27.6195 7.09394 27.4679C7.25857 26.9384 7.69757 26.6696 8.01768 26.2891C8.22984 26.0366 8.45905 25.7994 8.70364 25.5793C8.85112 25.4455 8.79624 25.3466 8.70364 25.2488C8.43726 24.9695 8.16974 24.6914 7.88735 24.4343C7.84796 24.4103 7.80319 24.3971 7.75735 24.3959C7.7115 24.3947 7.66612 24.4055 7.62555 24.4273C7.0322 24.9998 6.45371 25.5909 5.86494 26.1727C5.72581 26.3066 5.55031 26.3947 5.36129 26.4257C5.17227 26.4566 4.97848 26.4289 4.80514 26.3461C4.27353 26.1134 3.96485 25.6189 3.56586 25.2372C2.87076 24.5716 2.21682 23.8629 1.54687 23.1705C1.16846 22.7807 0.776319 22.4025 0.417338 21.9941C-0.0262446 21.4891 0.0594989 20.934 0.500795 20.4615C1.01754 19.9088 1.53658 19.3584 2.08191 18.8324C2.23282 18.687 2.19624 18.6288 2.08877 18.5229C1.51258 17.9349 0.935994 17.3472 0.359032 16.76C-0.030817 16.3632 -0.0148112 15.6033 0.380754 15.2077C0.968386 14.6204 1.5484 14.0254 2.12079 13.4226C2.14031 13.3823 2.1492 13.3375 2.1466 13.2926C2.14399 13.2477 2.12997 13.2043 2.10592 13.1666C1.51296 12.5561 0.912367 11.9518 0.304157 11.3536C-0.108558 10.9464 -0.114275 10.19 0.296153 9.75711C0.912366 9.10779 1.52401 8.45266 2.19738 7.73818C1.86698 7.42399 1.48171 7.0714 1.11244 6.70253C0.828146 6.42503 0.55835 6.13255 0.304157 5.8263C0.0412084 5.5028 0.13724 4.86861 0.497365 4.5009C1.67263 3.29652 2.85704 2.09912 4.03459 0.893577C4.27582 0.646882 4.49189 0.38157 4.82458 0.238441C4.93962 0.179322 5.06669 0.148523 5.19556 0.148523C5.32444 0.148523 5.45151 0.179322 5.56655 0.238441C6.23878 0.571245 6.61148 1.23336 7.1671 1.69766C7.35345 1.85475 7.52037 2.03512 7.73873 2.2469C8.22461 1.73839 8.72193 1.21242 9.22496 0.692265C9.45361 0.453716 9.66283 0.188404 9.99437 0.0650566C10.1629 -0.00168501 10.3465 -0.0186359 10.5241 0.0161548C10.7017 0.0509455 10.866 0.136064 10.9981 0.261714C11.6487 0.884267 12.2683 1.53475 12.9131 2.1573C12.9543 2.18022 13.0005 2.19223 13.0474 2.19223C13.0944 2.19223 13.1406 2.18022 13.1818 2.1573C13.7328 1.61271 14.2781 1.06114 14.8086 0.496771C15.2396 0.0371288 15.6718 -0.0338538 16.1805 0.172113C16.448 0.281496 16.6481 0.573572 16.8665 0.794666C17.3146 1.24733 17.7502 1.71046 18.2041 2.15614C18.2478 2.17643 18.2959 2.18515 18.3439 2.18148C18.3919 2.17782 18.4381 2.1619 18.4785 2.13519C19.0284 1.58944 19.5611 1.02623 20.1053 0.475826C20.574 0.00338297 21.22 0.05342 21.7196 0.563099C22.6616 1.52428 23.6151 2.47382 24.5628 3.42801C24.9241 3.78641 25.2957 4.13551 25.6375 4.51486C26.0879 5.01058 26.0845 5.65408 25.5769 6.13699C25.1196 6.56987 24.6852 7.02137 24.253 7.47635C24.2336 7.51706 24.2246 7.56213 24.227 7.60733C24.2294 7.65253 24.2431 7.69636 24.2667 7.73469C24.5343 8.0256 24.8201 8.29906 25.1002 8.57833C25.2076 8.68423 25.2865 8.71797 25.4226 8.57833C25.9096 8.064 26.4229 7.57759 26.9157 7.06559C27.5182 6.4442 28.1469 6.45816 28.7529 7.09002C29.496 7.8592 30.2574 8.62022 31.0096 9.38591C31.5275 9.91421 32.058 10.4332 32.5542 10.9789C33.0001 11.4723 33.0115 12.0972 32.4399 12.6651C31.9597 13.1515 31.4795 13.6414 30.9765 14.1115C30.7959 14.2814 30.781 14.3896 30.9616 14.5676C31.5714 15.1751 32.1765 15.7895 32.7771 16.4109C33.0618 16.7041 33.0778 17.3057 32.7657 17.6781C32.393 18.1238 31.9723 18.5287 31.5618 18.9407C31.3035 19.2013 31.0245 19.4433 30.7021 19.7424C31.3789 20.4115 32.002 21.0143 32.6102 21.6333C33.1532 22.1849 33.0778 22.7574 32.5931 23.2729C32.002 23.9025 31.3698 24.4913 30.813 25.0394C31.4155 25.6898 31.9563 26.2949 32.5279 26.8826C32.7553 27.117 32.8823 27.4337 32.881 27.7632C32.8797 28.0927 32.7503 28.4082 32.521 28.6409C31.2566 29.9383 29.9922 31.2346 28.714 32.5158C28.227 33.0034 27.5067 33.0092 26.9854 32.4425C26.4892 31.9026 25.9565 31.3952 25.4489 30.8646C25.3002 30.7063 25.2202 30.7855 25.1173 30.8902C24.596 31.4231 24.077 31.9573 23.5522 32.4867C23.0275 33.0162 22.4547 33.2547 21.7527 32.5542C21.1674 31.9724 20.5832 31.3906 19.9681 30.7703C19.6731 31.0682 19.353 31.3882 19.0364 31.7129C18.7197 32.0376 18.4647 32.3657 18.1309 32.6438C17.5776 33.1093 17.0517 33.1558 16.4618 32.567C15.8718 31.9782 15.2796 31.3964 14.6063 30.7319ZM2.85247 21.3401L5.22472 23.7768C5.56769 23.4079 5.90381 23.0483 6.2445 22.6969C7.1591 21.7555 8.0737 20.8118 8.99745 19.882C9.16094 19.7191 9.06948 19.6575 8.9643 19.5492C8.39267 18.9593 7.80733 18.3716 7.24256 17.77C6.69723 17.1882 6.82298 16.6587 7.286 16.1595C7.81876 15.5847 8.37895 15.0366 8.94029 14.4908C9.11978 14.3175 9.08891 14.2023 8.93343 14.0475C8.44412 13.5623 7.97767 13.0502 7.46892 12.5848C7.07107 12.2206 6.99676 11.3234 7.47578 10.8777C8.07256 10.3238 8.63047 9.72686 9.20209 9.14503C9.91891 8.41426 10.6254 7.67418 11.3503 6.95038C11.8076 6.49307 12.4123 6.48492 12.8982 6.95038C13.4287 7.46937 13.9626 7.98603 14.4702 8.52713C14.604 8.67026 14.6543 8.66212 14.772 8.5411C15.3223 7.97944 15.8753 7.41972 16.4309 6.86195C16.911 6.37903 17.5124 6.27198 18.0417 6.81656C18.6134 7.40537 19.2078 7.96974 19.7863 8.55041C19.9007 8.66677 19.9567 8.73659 20.1076 8.56437C20.4391 8.18386 20.8118 7.84174 21.1617 7.47635C21.8693 6.74442 22.569 5.99735 23.2767 5.25611L20.9902 2.89971C20.3717 3.48154 19.7875 4.05522 19.1838 4.6033C18.6602 5.07923 18.0211 5.05945 17.5078 4.57304C16.903 3.99936 16.3028 3.42336 15.7003 2.84735C15.6901 2.79498 15.6032 2.81826 15.5494 2.87295C15.0018 3.43266 14.4565 3.99354 13.918 4.56141C13.4779 5.02687 12.7405 5.1025 12.2557 4.60679C11.9402 4.28329 11.6189 3.96445 11.3057 3.63863C10.9924 3.31281 10.6872 2.98117 10.4254 2.70771C9.78515 3.33259 9.19867 3.91209 8.60303 4.48112C7.92737 5.12694 7.37746 5.0385 6.77383 4.42875C6.24793 3.90278 5.73918 3.35935 5.23272 2.83338L2.84103 5.20956C3.42409 5.84026 3.98429 6.43721 4.53191 7.04231C4.99721 7.55548 4.9229 8.23273 4.44845 8.68772C3.82538 9.28583 3.23203 9.91653 2.56551 10.5949C3.1943 11.2059 3.79336 11.8168 4.42558 12.3893C4.55213 12.495 4.6552 12.6269 4.72796 12.7762C4.80073 12.9254 4.84154 13.0887 4.8477 13.2552C4.85386 13.4218 4.82523 13.5877 4.7637 13.7422C4.70216 13.8966 4.60913 14.036 4.49075 14.1511C3.96943 14.6875 3.44581 15.2205 2.90734 15.7383C2.70956 15.9291 2.71871 16.0688 2.90734 16.2491C3.42181 16.7565 3.93627 17.2662 4.43816 17.7851C4.58564 17.9376 4.76742 18.1075 4.812 18.2995C4.91261 18.7359 4.86116 19.1687 4.53305 19.5236C3.96714 20.1299 3.41037 20.7385 2.85247 21.3401ZM9.60338 17.0346C10.0607 17.5094 10.5843 18.0493 11.1136 18.5788C11.188 18.6319 11.2779 18.6578 11.3686 18.6521C11.9962 18.6579 12.6261 18.6521 13.2515 18.6579C13.5099 18.6579 13.607 18.5415 13.6059 18.2913C13.6059 17.438 13.6059 16.5866 13.6059 15.7371C13.6059 15.4939 13.4984 15.388 13.2629 15.388C12.7496 15.388 12.234 15.4346 11.7241 15.3764C11.1765 15.3147 10.8495 15.5893 10.5363 15.9687C10.2436 16.3259 9.9292 16.6669 9.60795 17.0323L9.60338 17.0346ZM17.2346 9.11012C16.7624 9.60584 16.32 10.041 15.9118 10.5065C15.7913 10.6461 15.7183 10.8216 15.7038 11.0069C15.6798 11.6352 15.7038 12.2648 15.6901 12.8943C15.6901 13.1573 15.7804 13.2585 16.033 13.2562C16.871 13.2481 17.7079 13.2446 18.5482 13.2562C18.8191 13.2562 18.8912 13.1398 18.8912 12.8932C18.8832 12.2741 18.8992 11.655 18.882 11.0313C18.8772 10.8725 18.8214 10.7196 18.7231 10.5961C18.443 10.2784 18.1332 9.98868 17.8325 9.68962C17.6507 9.51391 17.461 9.33122 17.2346 9.11012ZM26.3452 17.023V18.353C26.3452 18.5601 26.4161 18.6672 26.6493 18.6625C27.3032 18.6497 27.9594 18.6625 28.6145 18.6532C28.7109 18.6457 28.8017 18.6046 28.8718 18.5369C29.3496 18.0819 29.8229 17.6211 30.286 17.151C30.3043 17.1146 30.3129 17.0739 30.3109 17.033C30.3089 16.9922 30.2964 16.9526 30.2745 16.9182C29.8332 16.4656 29.3874 16.0164 28.9266 15.5847C28.8105 15.4779 28.6631 15.4129 28.5071 15.3997C27.9 15.3799 27.2918 15.3997 26.6836 15.3869C26.4343 15.3869 26.3406 15.4765 26.3406 15.7208C26.3497 16.1514 26.3452 16.5866 26.3452 17.0183V17.023ZM13.6093 22.4549C13.6093 22.0104 13.6093 21.5659 13.6093 21.1213C13.6093 20.8886 13.5087 20.7885 13.2847 20.7897C12.6581 20.7897 12.0271 20.7827 11.4051 20.7978C11.2651 20.8017 11.1305 20.8538 11.0233 20.9456C10.6129 21.3389 10.223 21.7532 9.82174 22.1593C9.61024 22.3734 9.60795 22.4747 9.82174 22.6958C10.1499 23.0344 10.47 23.3811 10.8095 23.707C10.9467 23.8385 11.1216 24.006 11.2862 24.0142C11.9722 24.0491 12.6581 24.0235 13.3361 24.0305C13.5522 24.0305 13.6151 23.935 13.6105 23.7302C13.599 23.3009 13.6082 22.8703 13.6093 22.4502V22.4549ZM17.2575 18.6521C17.6942 18.6521 18.1309 18.6521 18.5676 18.6521C18.7826 18.6521 18.89 18.559 18.8912 18.346C18.8912 17.4585 18.8912 16.5699 18.8912 15.6801C18.8912 15.48 18.794 15.3822 18.5928 15.3834C17.7285 15.3834 16.8646 15.3834 16.001 15.3834C15.7895 15.3834 15.6901 15.48 15.6912 15.6999C15.6958 16.5796 15.6958 17.4589 15.6912 18.3379C15.6912 18.5613 15.7907 18.6509 16.0045 18.6474C16.4229 18.6486 16.8402 18.6521 17.2575 18.6521ZM24.1833 17.023C24.1833 16.5784 24.1741 16.1328 24.1833 15.6882C24.1901 15.4555 24.1055 15.381 23.886 15.3822C23.0309 15.3892 22.1753 15.3892 21.3194 15.3822C21.2771 15.3752 21.2337 15.3783 21.1928 15.3913C21.1518 15.4043 21.1144 15.4268 21.0835 15.4571C21.0525 15.4873 21.0289 15.5245 21.0145 15.5656C21.0001 15.6067 20.9953 15.6507 21.0005 15.6941C20.9951 16.5753 20.9951 17.4558 21.0005 18.3356C21.0005 18.5252 21.0839 18.6556 21.3103 18.6532C22.1666 18.6462 23.0252 18.6439 23.878 18.6532C24.1181 18.6532 24.1913 18.5625 24.1833 18.3274C24.1741 17.8969 24.1844 17.4617 24.1844 17.0253L24.1833 17.023ZM22.617 13.2562C23.0446 13.2562 23.4733 13.2492 23.9009 13.2562C24.109 13.2562 24.1901 13.1852 24.1879 12.9711C24.1799 12.2939 24.1879 11.6155 24.1799 10.9382C24.179 10.8359 24.1439 10.737 24.0804 10.6578C23.6654 10.2144 23.239 9.78155 22.8148 9.34751C22.6799 9.20903 22.5633 9.20089 22.4135 9.36031C22.0923 9.70358 21.7276 10.0108 21.42 10.3634C21.2531 10.5519 20.9936 10.688 20.9993 11.0115C21.0108 11.6504 20.9993 12.2915 20.9993 12.9292C20.9993 13.162 21.1011 13.2597 21.3297 13.2562C21.7607 13.2516 22.1883 13.2574 22.617 13.2562ZM17.3409 26.2309H16.0833C15.7152 26.2309 15.6935 26.253 15.6935 26.6149C15.6935 27.2154 15.6843 27.8147 15.6935 28.4139C15.6957 28.554 15.745 28.6891 15.833 28.7968C16.2788 29.2762 16.7476 29.7393 17.2049 30.2071C17.2975 30.3002 17.3478 30.313 17.4632 30.1804C17.7605 29.8417 18.1263 29.5636 18.419 29.2204C18.6008 29.0074 18.9015 28.8631 18.8969 28.507C18.8889 27.86 18.8843 27.2119 18.8969 26.5637C18.8969 26.3019 18.7826 26.2274 18.5608 26.2309C18.1583 26.2356 17.7502 26.2321 17.3409 26.2309ZM9.72685 27.7274C9.78858 27.7949 9.87318 27.895 9.96465 27.988C10.6415 28.6723 11.3297 29.3449 11.9893 30.0465C12.13 30.1943 12.1951 30.1629 12.2957 30.0605C12.6764 29.6823 13.0663 29.3146 13.4218 28.9143C13.5341 28.7672 13.597 28.5873 13.6013 28.4011C13.6219 27.7926 13.6013 27.1828 13.6151 26.573C13.6242 26.3101 13.519 26.2309 13.2904 26.2321C12.6536 26.2321 12.0156 26.2216 11.3788 26.2426C11.2264 26.2552 11.0828 26.3205 10.9719 26.4276C10.5511 26.8442 10.1499 27.2817 9.72685 27.7274ZM27.8566 9.1974C27.3844 9.68147 27.0025 10.0853 26.6058 10.4774C26.5207 10.5509 26.4528 10.6429 26.4071 10.7466C26.3614 10.8503 26.3391 10.9631 26.3417 11.0767C26.352 11.7051 26.3417 12.3323 26.3417 12.9595C26.3417 13.1748 26.4275 13.2702 26.6527 13.2655C27.2804 13.2539 27.9103 13.2655 28.5368 13.2539C28.6949 13.2493 28.847 13.1911 28.9689 13.0886C29.3668 12.7151 29.7429 12.3183 30.1202 11.925C30.2037 11.8366 30.2528 11.7621 30.1065 11.6341C29.8297 11.3694 29.5664 11.0906 29.3176 10.7986C28.8386 10.2691 28.3573 9.74315 27.8566 9.1974ZM24.1833 26.2949C24.1469 26.2773 24.1085 26.2644 24.069 26.2565C23.1201 26.2484 22.1712 26.2379 21.2211 26.2379C21.0462 26.2379 20.9925 26.3543 20.9925 26.5323C21.0016 27.1607 20.9925 27.7891 21.0016 28.4163C20.9991 28.5479 21.0393 28.6767 21.1159 28.7828C21.5847 29.3181 22.0706 29.8383 22.6159 30.434C23.0812 29.9232 23.471 29.5031 23.8506 29.0761C23.9729 28.9376 24.157 28.7793 24.1627 28.6234C24.2016 27.8519 24.1833 27.0792 24.1833 26.2949ZM30.3226 22.3711C29.8767 21.9289 29.3908 21.4402 28.8935 20.9654C28.7968 20.8698 28.6718 20.8092 28.5379 20.7932C27.9011 20.7769 27.2644 20.7932 26.6264 20.7827C26.4469 20.7827 26.3509 20.856 26.3486 21.0306C26.3417 21.9475 26.3383 22.8641 26.3383 23.7803C26.3383 23.9513 26.4058 24.0316 26.599 24.0281C27.2735 24.0153 27.9492 24.0281 28.6237 24.0177C28.7288 24.0118 28.8285 23.9681 28.9049 23.8943C29.3759 23.4079 29.8241 22.9099 30.3226 22.3711ZM12.1448 9.24743C11.9368 9.44874 11.7756 9.59653 11.6212 9.75595C11.045 10.3471 10.4703 10.9394 9.89719 11.5328C9.75314 11.683 9.75886 11.7947 9.93263 11.9506C10.2515 12.2436 10.5541 12.5544 10.8392 12.8815C11.061 13.1305 11.2885 13.2865 11.6487 13.262C12.1883 13.2271 12.7313 13.2516 13.2732 13.2539C13.5019 13.2539 13.6162 13.162 13.6162 12.9129C13.6093 12.3614 13.6002 11.8098 13.6162 11.2594C13.6265 10.9627 13.5773 10.7288 13.3487 10.51C12.9245 10.1097 12.5358 9.66751 12.1391 9.24743H12.1448ZM27.5925 26.2321C27.3067 26.2321 27.0208 26.2321 26.7362 26.2321C26.3463 26.2321 26.3257 26.2612 26.3326 26.6603C26.3429 27.2421 26.3326 27.824 26.3486 28.4058C26.3477 28.5443 26.3924 28.679 26.4755 28.7886C26.8814 29.2238 27.3078 29.6393 27.7262 30.0628C27.8314 30.1699 27.8886 30.1967 28.0258 30.05C28.6965 29.3356 29.3824 28.6374 30.0836 27.9555C30.2528 27.7926 30.238 27.7367 30.0905 27.5924C29.7495 27.2735 29.4266 26.9351 29.1233 26.5789C28.8638 26.2612 28.5517 26.21 28.187 26.2367C27.9926 26.2449 27.7925 26.2321 27.5925 26.2321ZM17.3032 24.0212C17.7399 24.0212 18.1778 24.0107 18.6134 24.0212C18.8306 24.0281 18.9037 23.9327 18.9026 23.7326C18.9026 22.8529 18.9026 21.9735 18.9026 21.0946C18.9026 20.8746 18.7883 20.7804 18.5859 20.7804C17.7216 20.7804 16.8573 20.7804 15.993 20.7804C15.8021 20.7804 15.7003 20.87 15.7015 21.0829C15.7015 21.972 15.7083 22.8622 15.7015 23.7512C15.7015 23.956 15.7792 24.0223 15.9702 24.0188C16.4069 24.0188 16.8527 24.0235 17.2998 24.0235L17.3032 24.0212ZM24.1879 24.0212C24.1879 22.982 24.1879 21.9952 24.1879 21.0085C24.1879 20.8188 24.0735 20.7839 23.9261 20.7839H21.2966C21.2563 20.7775 21.215 20.781 21.1763 20.7939C21.1375 20.8068 21.1023 20.8288 21.0734 20.8581C21.0446 20.8875 21.023 20.9234 21.0103 20.9628C20.9976 21.0023 20.9942 21.0442 21.0005 21.0853C21.0005 21.9572 21.0005 22.8288 21.0005 23.7C21.0005 23.9246 21.0816 24.034 21.3229 24.0258C21.7413 24.0118 22.1597 24.0258 22.5804 24.0258L24.1879 24.0212Z" fill="#49AA39"/>
</g>
<defs>
<clipPath id="clip0_127_127">
<rect width="33" height="33" fill="white"/>
</clipPath>
</defs>
</svg>
