<?xml version="1.0" encoding="utf-8"?>
<!-- Generator: Adobe Illustrator 26.0.3, SVG Export Plug-In . SVG Version: 6.00 Build 0)  -->
<svg version="1.1" id="图层_1" xmlns="http://www.w3.org/2000/svg" xmlns:xlink="http://www.w3.org/1999/xlink" x="0px" y="0px"
	 viewBox="0 0 200 223.5" style="enable-background:new 0 0 200 223.5;" xml:space="preserve">
<style type="text/css">
	.st0{fill:none;stroke:#CDCDCD;stroke-width:12;stroke-linecap:round;stroke-linejoin:round;stroke-miterlimit:10;}
</style>
<g>
	<path class="st0" d="M99,156.5v31.1c0,3.9-2.2,7.4-5.7,9c-18.2,8.6-36.3,5.6-47.8,1.9c-7.4-2.4-13-8.5-14.7-16.1
		c-3.9-17.4-5.9-33.9-2.8-58.3c3.9-30,18.2-49.9,21.2-62.2c1.3-5.4,1.1-14.7,0.8-21.9c-0.3-6,3.7-11.5,9.5-13
		c8.8-2.3,22.8-4.9,39.6-5"/>
	<path class="st0" d="M99.1,156.5v31.1c0,3.9,2.2,7.4,5.7,9c18.2,8.6,36.3,5.6,47.8,1.9c7.4-2.4,13-8.5,14.7-16.1
		c3.9-17.4,5.9-33.9,2.8-58.3c-3.9-30-18.2-49.9-21.2-62.2c-1.3-5.4-1.1-14.7-0.8-21.9c0.3-6-3.7-11.5-9.5-13
		c-8.8-2.3-22.8-4.9-39.6-5"/>
	<path class="st0" d="M99.1,124.2c0,13.3-0.1,40.7-28.4,44.8"/>
	<path class="st0" d="M99.1,124.2c0,13.3,0.1,40.7,28.4,44.8"/>
</g>
</svg>
