<?xml version="1.0" encoding="utf-8"?>
<!-- Generator: Adobe Illustrator 26.0.3, SVG Export Plug-In . SVG Version: 6.00 Build 0)  -->
<svg version="1.1" id="图层_1" xmlns="http://www.w3.org/2000/svg" xmlns:xlink="http://www.w3.org/1999/xlink" x="0px" y="0px"
	 viewBox="0 0 35 35" style="enable-background:new 0 0 35 35;" xml:space="preserve">
<style type="text/css">
	.st0{fill:#74B1D9;}
	.st1{fill:none;stroke:#9568F1;stroke-width:3;stroke-linecap:round;}
	.st2{fill:none;stroke:#9568F1;stroke-width:3;}
</style>
<path class="st0" d="M17.5,27.5c-0.4,0-0.8-0.2-1.1-0.5c-0.3-0.3-0.5-0.7-0.5-1.1c0-0.4,0.2-0.8,0.5-1.1c0.3-0.3,0.7-0.5,1.1-0.5
	c0.3,0,0.5-0.1,0.8-0.2c0.3-0.1,0.5-0.3,0.7-0.5c0.2-0.2,0.3-0.4,0.4-0.7c0.1-0.3,0.2-0.5,0.1-0.8c0-0.4,0.2-0.8,0.5-1.1
	c0.3-0.3,0.7-0.5,1.1-0.5c0.4,0,0.8,0.2,1.1,0.5c0.3,0.3,0.5,0.7,0.5,1.1c0,0.7-0.1,1.4-0.4,2c-0.3,0.6-0.6,1.2-1.1,1.7
	c-0.5,0.5-1.1,0.9-1.7,1.2C18.9,27.3,18.2,27.5,17.5,27.5z M17.4,4.7c1.9,2.4,4.5,5.7,6.6,8.4l0.1,0.2c3.2,4.2,4.3,10.6,0.2,14.9
	c-0.9,0.9-2,1.7-3.1,2.2c-1.2,0.5-2.5,0.8-3.7,0.8c-1.3,0-2.6-0.3-3.7-0.8c-1.2-0.5-2.2-1.2-3.1-2.2c-3.7-3.9-3.6-9.9,0.2-14.9
	l1.3-1.8C13.9,9.2,15.9,6.6,17.4,4.7L17.4,4.7z M17.4,0.7c-0.3,0-0.5,0.1-0.8,0.2C16.4,1,16.2,1.2,16,1.4c-2.1,2.5-5.3,6.7-7.7,9.9
	c-4.6,6.1-5,13.8,0,19.1c1.2,1.2,2.6,2.2,4.2,2.9s3.3,1,5,1c1.7,0,3.4-0.3,5-1c1.6-0.7,3-1.7,4.2-2.9c5-5.2,4.5-13.3,0-19.1
	c-2.5-3.2-5.7-7.4-7.8-9.9c-0.2-0.2-0.4-0.4-0.6-0.5C18,0.8,17.7,0.7,17.4,0.7L17.4,0.7z"/>
<path class="st1" d="M61.6,7l4.9-4.9"/>
<path class="st1" d="M61.6,25.1v-5.6"/>
<path class="st1" d="M50.5,26.5h22.3"/>
<circle class="st2" cx="61.6" cy="7" r="12.2"/>
</svg>
