<?xml version="1.0" encoding="utf-8"?>
<!-- Generator: Adobe Illustrator 26.0.3, SVG Export Plug-In . SVG Version: 6.00 Build 0)  -->
<svg version="1.1" id="图层_1" xmlns="http://www.w3.org/2000/svg" xmlns:xlink="http://www.w3.org/1999/xlink" x="0px" y="0px"
	 viewBox="0 0 200 223.5" style="enable-background:new 0 0 200 223.5;" xml:space="preserve">
<style type="text/css">
	.st0{fill:none;stroke:#CDCDCD;stroke-width:12;stroke-linecap:round;stroke-linejoin:round;stroke-miterlimit:10;}
	.st1{fill:none;stroke:#CDCDCD;stroke-width:10;stroke-linecap:round;stroke-linejoin:round;stroke-miterlimit:10;}
</style>
<g>
	<path class="st0" d="M157.6,20.9v74.5c0,5.8-4.5,10.6-10.4,11c-12.7,0.8-32.8,2.5-36.3,6c-5.2,5.2,11.3,15,11.1,38.2
		c-0.2,17.8-6.8,27.7-6.3,39.5c0.5,13.1-3.4,23.2-20.1,23.2s-30.8,3.3-34.7-13.7s-10.7-61-11.1-67.9c-0.9-15.6-16.6-13-17.3-24.6
		c-0.7-11.6,0.6-24.1,3.9-29.6c3.3-5.5,16.2-7.3,18.9-9.2c2.4-1.7,48.5-43.5,89.3-56.8C151.1,9.4,157.6,14.1,157.6,20.9z"/>
	<path class="st1" d="M77.4,91.7c0,0,8.1,20.6-6,29.3"/>
</g>
</svg>
