<?xml version="1.0" encoding="utf-8"?>
<!-- Generator: Adobe Illustrator 26.0.3, SVG Export Plug-In . SVG Version: 6.00 Build 0)  -->
<svg version="1.1" id="图层_1" xmlns="http://www.w3.org/2000/svg" xmlns:xlink="http://www.w3.org/1999/xlink" x="0px" y="0px"
	 viewBox="0 0 200 200" style="enable-background:new 0 0 200 200;" xml:space="preserve">
<style type="text/css">
	.st0{fill:#E54E3A;}
</style>
<path class="st0" d="M100,0C44.8,0,0,44.8,0,100s44.8,100,100,100s100-44.8,100-100S155.2,0,100,0z M100,17.5
	c45.5,0,82.5,36.9,82.5,82.5s-36.9,82.5-82.5,82.5S17.5,145.5,17.5,100S54.5,17.5,100,17.5z"/>
<path class="st0" d="M107.2,123.1v-2c0-3.4,0.7-6.3,2.1-9.2c1.3-2.5,3.1-4.9,5.6-7c6.8-5.9,10.8-9.7,12.1-11.1
	c3.4-4.5,5.2-10.3,5.2-17.3c0-8.6-2.8-15.3-8.4-20.3c-5.6-5.1-13.1-7.5-22.2-7.5c-10.4,0-18.6,3-24.6,8.9
	c-6.2,5.9-9.2,14.1-9.2,24.5h16c0-5.9,1.1-10.6,3.5-13.8c2.7-3.9,7-5.8,13.2-5.8c4.8,0,8.6,1.3,11.3,3.9c2.5,2.7,3.9,6.3,3.9,11
	c0,3.5-1.3,6.9-3.8,10l-1.7,2c-9.2,8.2-14.6,14.1-16.5,17.9c-2,3.8-2.8,8.4-2.8,13.8v2L107.2,123.1L107.2,123.1z M99,151.2
	c3.1,0,5.6-1,7.7-3c2.1-2,3.2-4.6,3.2-7.7c0-3.1-1.1-5.6-3.1-7.6c-2.1-2-4.8-3-7.9-3c-3.1,0-5.6,1-7.7,2.9c-2.1,2-3.1,4.5-3.1,7.6
	c0,3.1,1,5.6,3.1,7.6C93.4,150.1,95.9,151.2,99,151.2L99,151.2z"/>
</svg>
