<svg width="33" height="33" viewBox="0 0 33 33" fill="none" xmlns="http://www.w3.org/2000/svg">
<path d="M27.7978 3.96128C27.3373 3.50079 26.7222 3.24869 26.0634 3.24869H19.3644C19.0114 2.17981 18.1375 1.36638 17.0317 1.09412C16.7762 1.03025 16.514 1 16.2518 1C14.8267 1 13.583 1.9109 13.1427 3.24869H6.44701C5.1025 3.24869 4.00672 4.3411 4 5.68561V28.6935C4 30.0347 5.09241 31.1271 6.43356 31.1271H26.0735C27.4146 31.1271 28.507 30.0347 28.507 28.6902V5.68898C28.5104 5.03353 28.2583 4.42178 27.7978 3.96128ZM6.16802 28.9557C6.09743 28.8851 6.06046 28.791 6.06046 28.6902V5.69234C6.06382 5.48394 6.23861 5.31251 6.44701 5.31251H9.60996V8.06876C9.60996 9.02336 10.3864 9.79981 11.341 9.79981H21.1627C22.1173 9.79981 22.8937 9.02336 22.8937 8.06876V5.31251H26.0701C26.2752 5.31251 26.4399 5.48058 26.4399 5.68898V28.6935C26.4399 28.8952 26.2684 29.07 26.0668 29.07H6.43356C6.33272 29.0666 6.23861 29.0263 6.16802 28.9557ZM15.0418 5.31251V4.2806C15.0418 3.61171 15.5863 3.06718 16.2552 3.06718C16.9241 3.06718 17.4686 3.61171 17.4686 4.2806V5.31251H20.8366V7.73935C17.7274 7.73935 15.3813 7.73599 13.8015 7.73599H11.6738V5.30915H15.0418V5.31251Z" fill="#49AA39"/>
<path fill-rule="evenodd" clip-rule="evenodd" d="M9.94666 14.5684C9.94666 13.977 10.4261 13.4976 11.0175 13.4976H21.493C22.0844 13.4976 22.5638 13.977 22.5638 14.5684C22.5638 15.1598 22.0844 15.6393 21.493 15.6393H11.0175C10.4261 15.6393 9.94666 15.1598 9.94666 14.5684Z" fill="#49AA39"/>
<path fill-rule="evenodd" clip-rule="evenodd" d="M9.94666 19.0582C9.94666 18.4667 10.4261 17.9873 11.0175 17.9873L21.493 17.9873C22.0844 17.9873 22.5638 18.4667 22.5638 19.0582C22.5638 19.6496 22.0844 20.129 21.493 20.129L11.0175 20.129C10.4261 20.129 9.94666 19.6496 9.94666 19.0582Z" fill="#49AA39"/>
<path fill-rule="evenodd" clip-rule="evenodd" d="M9.94666 23.5474C9.94666 22.956 10.4261 22.4766 11.0175 22.4766L21.493 22.4766C22.0844 22.4766 22.5638 22.956 22.5638 23.5474C22.5638 24.1388 22.0844 24.6183 21.493 24.6183L11.0175 24.6183C10.4261 24.6183 9.94666 24.1388 9.94666 23.5474Z" fill="#49AA39"/>
</svg>
