<svg width="35" height="35" viewBox="0 0 35 35" fill="none" xmlns="http://www.w3.org/2000/svg">
<g clip-path="url(#clip0_127_110)">
<path d="M20.1613 10.3457C20.738 10.3241 21.2903 10.2944 21.8453 10.2836C21.8994 10.2836 21.986 10.3673 22.0104 10.4321C22.3147 11.2094 22.4974 12.0287 22.5519 12.8613C22.5519 12.9261 22.5681 12.9909 22.5789 13.08C23.8355 12.8143 25.1228 12.7235 26.4044 12.81C26.3529 12.6211 26.3042 12.4538 26.2609 12.2891C25.9761 11.2186 25.8637 10.1099 25.9279 9.00423C25.9405 8.2906 26.012 7.57921 26.1417 6.87729C26.3231 6.06754 26.6399 5.29288 26.9025 4.50473C26.9566 4.34548 27.027 4.19163 27.0839 4.03238C27.1152 3.92276 27.1686 3.82064 27.2408 3.73226C27.3129 3.64387 27.4024 3.57107 27.5038 3.51829C27.6051 3.46551 27.7161 3.43385 27.8301 3.42525C27.9441 3.41664 28.0587 3.43128 28.1668 3.46825C28.2771 3.49821 28.3797 3.55103 28.4681 3.62325C28.5565 3.69547 28.6286 3.78547 28.6797 3.88737C28.7308 3.98927 28.7598 4.10078 28.7647 4.2146C28.7696 4.32843 28.7504 4.442 28.7083 4.54792C28.5702 4.97438 28.3888 5.38735 28.2291 5.80572C28.1885 5.90829 28.156 6.01086 28.1154 6.11883C28.6027 6.14042 29.071 6.13772 29.5313 6.189C30.0297 6.24467 30.5242 6.3303 31.0122 6.44542C31.2276 6.49589 31.4141 6.62961 31.5306 6.81715C31.6471 7.00469 31.6841 7.2307 31.6335 7.44546C31.5829 7.66022 31.4488 7.84614 31.2607 7.96231C31.0726 8.07848 30.8459 8.11539 30.6305 8.06492C29.7547 7.87676 28.8591 7.79698 27.9638 7.82739C27.7472 7.82739 27.693 7.90297 27.6633 8.1189C27.5687 9.0548 27.5814 9.9984 27.7012 10.9314C27.8028 11.6336 27.9986 12.319 28.2832 12.9693C28.309 13.0279 28.3566 13.0743 28.4159 13.0989C29.3282 13.4174 30.2406 13.7359 31.1557 14.0463C32.0739 14.3384 33.0348 14.4753 33.9983 14.4511C34.1641 14.433 34.3316 14.4604 34.4829 14.5304C34.6341 14.6003 34.7633 14.7101 34.8566 14.8479C34.938 14.9652 34.9868 15.1019 34.9983 15.2441C35.0097 15.3863 34.9832 15.5289 34.9215 15.6577C34.8654 15.7999 34.7678 15.9222 34.6414 16.0088C34.515 16.0954 34.3656 16.1423 34.2122 16.1435C33.3464 16.187 32.4788 16.1088 31.6349 15.9114C30.7868 15.6871 29.9517 15.4168 29.1333 15.1016C27.7788 14.5958 26.3312 14.3859 24.8883 14.4862C24.2527 14.5374 23.6201 14.6212 22.9932 14.7372C22.8361 14.7642 22.5735 14.7372 22.5546 14.9802C22.4571 16.2758 21.9887 17.4553 21.4717 18.6267C21.1216 19.4161 20.9374 20.2685 20.9302 21.1316L21.6341 21.0803C22.6493 21.0074 23.5671 20.6241 24.4849 20.2273C25.1624 19.9216 25.8782 19.7082 26.6128 19.593C26.5099 19.9817 26.4017 20.338 26.3421 20.7024C26.3028 20.9495 26.1877 21.1783 26.0127 21.3576C25.8378 21.5369 25.6114 21.6578 25.3648 21.7038C24.6933 21.8954 24.0625 22.2247 23.3965 22.4406C22.2723 22.766 21.0986 22.8876 19.9312 22.7996C18.5992 22.7191 17.2968 22.3741 16.1004 21.7847C15.8919 21.6876 15.6753 21.6147 15.4614 21.5337C15.4141 21.5239 15.3662 21.5166 15.318 21.5121C15.0716 22.1869 14.8009 22.8617 14.5843 23.5392C14.1944 24.77 14.2107 26.0386 14.2811 27.318C14.2773 27.3482 14.2799 27.3789 14.2887 27.4081C14.2975 27.4373 14.3123 27.4643 14.3322 27.4874C14.352 27.5105 14.3766 27.5292 14.4041 27.5424C14.4317 27.5555 14.4617 27.5628 14.4922 27.5636C16.1864 27.912 17.9384 27.8658 19.6117 27.4287C19.674 27.4098 19.739 27.399 19.8662 27.372C19.9231 27.8444 19.9691 28.3032 20.0422 28.7567C20.0801 29.0023 19.9935 29.0806 19.7715 29.1373C18.3112 29.4668 16.8063 29.5525 15.318 29.391C14.1346 29.2564 12.9788 28.9424 11.8905 28.4598C11.0671 28.1302 10.2013 27.9176 9.31857 27.8282C9.26356 27.8254 9.20844 27.8254 9.15343 27.8282C9.17238 28.0279 9.19133 28.2222 9.20757 28.4139C9.32255 29.5082 9.26592 30.6137 9.03972 31.6907C9.02053 31.8019 8.97876 31.908 8.91696 32.0026C8.85517 32.0971 8.77465 32.1781 8.68035 32.2405C8.58606 32.3029 8.47996 32.3455 8.36858 32.3656C8.25719 32.3857 8.14286 32.3829 8.0326 32.3574C7.81829 32.3064 7.63196 32.1749 7.51244 31.9904C7.39291 31.8059 7.3494 31.5825 7.39098 31.3668C7.45595 30.9376 7.53175 30.5057 7.55612 30.0739C7.63628 29.1464 7.54918 28.2122 7.29893 27.3153C7.12837 26.7755 6.87929 26.2357 6.68708 25.6958C6.46508 25.0642 6.26744 24.4245 6.06169 23.7875C6.05577 23.7409 6.05577 23.6938 6.06169 23.6472L7.68607 23.3476C7.71688 23.5044 7.75665 23.6595 7.80519 23.8118C8.03261 24.4245 8.30604 25.0237 8.48743 25.6526C8.61467 26.1061 8.89894 26.1439 9.28067 26.1682C9.72161 26.1965 10.1597 26.2588 10.591 26.3544C11.2489 26.5029 11.8986 26.6945 12.5728 26.8727C12.5728 26.6027 12.5728 26.3112 12.5728 26.0197C12.5755 24.4606 12.9096 22.9198 13.5528 21.4986C13.9534 20.5873 14.1749 19.6078 14.2053 18.6132C14.2215 18.0734 14.2053 17.5066 14.2053 16.956V16.767C14.7467 16.8345 15.2882 16.8939 15.7971 16.9748C15.8486 16.9748 15.9136 17.1152 15.9109 17.1908C15.9109 17.7792 15.8946 18.3703 15.8675 18.9587C15.8675 19.2286 15.7971 19.4824 15.7728 19.7442C15.7741 19.773 15.7824 19.8011 15.797 19.826C15.8117 19.851 15.8321 19.872 15.8567 19.8872C16.7961 20.2408 17.7329 20.5917 18.6777 20.9318C18.8614 20.9802 19.0489 21.0127 19.2381 21.029C19.2571 20.805 19.2733 20.6079 19.2896 20.4109C19.3781 19.4471 19.6404 18.5071 20.0639 17.6361C20.7858 16.1246 21.0609 14.4394 20.8571 12.7777C20.7645 11.9853 20.546 11.2127 20.21 10.4888C20.1992 10.4456 20.1803 10.4051 20.1613 10.3457Z" fill="#49AA39"/>
<path d="M14.2729 7.91955C14.2729 8.7455 14.2485 9.53905 14.2729 10.3191C14.3189 11.4932 14.7331 12.5756 15.1825 13.6472C15.2643 13.8366 15.3331 14.0314 15.3883 14.2302C15.3963 14.2837 15.4247 14.332 15.4676 14.3652C15.5104 14.3983 15.5644 14.4138 15.6184 14.4083C17.0478 14.5028 18.4692 14.4893 19.8526 14.0305C19.9229 14.0102 19.9943 13.9939 20.0665 13.9819C20.0502 14.2329 20.0448 14.4623 20.0232 14.6917C20.0015 14.9212 19.9555 15.2181 19.9419 15.4826C19.9284 15.7471 19.7985 15.8119 19.5765 15.8605C18.5604 16.0609 17.5257 16.1514 16.4901 16.1304C14.8626 16.1054 13.2569 15.7538 11.7686 15.0966C11.053 14.7954 10.2951 14.606 9.52154 14.5352C9.4349 14.5352 9.34556 14.5352 9.25081 14.5352C9.18042 15.0156 9.11815 15.488 9.03693 15.9577C8.86226 16.7987 8.58306 17.6147 8.20579 18.3869C7.9016 19.0674 7.69824 19.7885 7.60206 20.5273C7.59754 20.592 7.59754 20.657 7.60206 20.7217C7.92964 20.5894 8.23828 20.476 8.53608 20.3438C9.26012 20.007 10.023 19.7604 10.8075 19.6096C11.6177 19.467 12.4416 19.4181 13.263 19.4639C13.2305 19.642 13.2116 19.8067 13.1683 19.9659C13.0816 20.2871 12.9761 20.6002 12.8975 20.9214C12.8933 20.9552 12.8822 20.9878 12.8648 21.0172C12.8475 21.0465 12.8242 21.072 12.7965 21.092C12.7688 21.112 12.7373 21.1261 12.7039 21.1335C12.6705 21.1408 12.636 21.1412 12.6024 21.1346C11.8472 21.111 11.0936 21.2169 10.3743 21.4477C9.75707 21.6529 9.15876 21.9066 8.56045 22.1576C7.52394 22.5715 6.41999 22.792 5.30356 22.8081C4.04474 22.8688 2.78607 22.6854 1.59727 22.2683C1.29134 22.1549 0.988122 22.0389 0.693026 21.9012C0.492762 21.8189 0.332326 21.6624 0.245477 21.4645C0.158628 21.2667 0.152137 21.0429 0.22737 20.8404C0.263423 20.7285 0.323502 20.6257 0.403428 20.5392C0.483354 20.4527 0.581209 20.3847 0.690192 20.3397C0.799176 20.2948 0.916672 20.274 1.03451 20.2789C1.15235 20.2838 1.26771 20.3142 1.37256 20.3681C2.02328 20.6673 2.70906 20.884 3.41386 21.0132C4.16821 21.1255 4.93269 21.1545 5.69341 21.0995C5.82878 21.0995 5.89375 21.0537 5.89917 20.9079C5.97836 19.6098 6.3171 18.3406 6.89546 17.175C7.50928 15.7584 7.71099 14.1982 7.47753 12.6728C7.42122 12.2496 7.33069 11.8317 7.2068 11.4231C7.08497 11.0155 6.90628 10.6133 6.74926 10.2192L8.41696 9.76308C8.60106 10.3434 8.81222 10.9372 8.98008 11.5445C9.066 11.9084 9.13019 12.277 9.1723 12.6485C9.18854 12.7753 9.22644 12.832 9.35639 12.8401C10.71 12.9049 11.9473 13.3341 13.1737 13.8388C13.2549 13.8739 13.3388 13.8928 13.4634 13.9333C13.3578 13.6445 13.2657 13.3935 13.171 13.1424C12.7128 11.8545 12.5033 10.4917 12.5537 9.12608C12.5453 8.02866 12.7051 6.93641 13.0275 5.88709C13.1845 5.39854 13.3822 4.92079 13.569 4.44304C14.0226 3.29514 14.2497 2.0707 14.2377 0.83696C14.2333 0.699962 14.2632 0.564037 14.3247 0.44144C14.3862 0.318843 14.4773 0.213427 14.5898 0.134699C14.7024 0.0559698 14.8328 0.00640261 14.9694 -0.0095345C15.1059 -0.0254716 15.2443 -0.0072772 15.372 0.0434079C15.5279 0.103894 15.6624 0.208889 15.7587 0.345245C15.8551 0.481601 15.9089 0.643257 15.9135 0.809969C15.9391 2.05786 15.7439 3.30049 15.3368 4.48083C15.1446 5.02066 14.9334 5.5389 14.7304 6.06793C14.7114 6.12192 14.6979 6.1786 14.6817 6.24338C15.0309 6.33515 15.3801 6.40263 15.7077 6.51329C16.4495 6.78321 17.1751 7.09901 17.9169 7.36623C18.309 7.4953 18.7075 7.6043 19.1108 7.69283C19.1811 7.699 19.2517 7.699 19.322 7.69283C19.2976 7.37163 19.2732 7.07472 19.257 6.77511C19.1867 5.7813 19.2514 4.78259 19.4492 3.80604C19.6627 2.96289 19.9592 2.14286 20.3345 1.3579C20.413 1.17436 20.4753 0.985414 20.5565 0.804571C20.6399 0.609238 20.7956 0.453434 20.9912 0.3695C21.1868 0.285566 21.4073 0.279948 21.6069 0.353812C21.8023 0.420627 21.9648 0.559129 22.0613 0.741143C22.1579 0.923158 22.1813 1.13501 22.1267 1.33361C21.994 1.76198 21.8312 2.18049 21.6394 2.58602C20.8814 4.18662 20.7974 5.86279 21.0194 7.58216C21.0357 7.71172 21.0763 7.7657 21.2279 7.763C22.1837 7.72178 23.122 7.49341 23.9894 7.09091C24.3521 6.92896 24.7257 6.78861 25.0966 6.64015C25.1728 6.61292 25.2505 6.59039 25.3295 6.57267C25.297 6.77511 25.2645 6.93976 25.2401 7.11251C25.1887 7.50658 25.1291 7.90066 25.0966 8.29474C25.0954 8.34819 25.0783 8.40006 25.0474 8.44379C25.0166 8.48752 24.9734 8.52113 24.9234 8.54036C23.1112 9.36928 21.0986 9.66249 19.1243 9.3852C18.1229 9.23456 17.1472 8.94663 16.2248 8.52956C15.6834 8.30284 15.1121 8.14089 14.5517 7.95464C14.4598 7.9357 14.3666 7.92397 14.2729 7.91955Z" fill="#49AA39"/>
<path d="M19.3951 23.6472C19.9583 23.6472 20.4781 23.6472 21.0195 23.6472C21.0628 23.6472 21.1224 23.7308 21.1441 23.7875C21.4852 24.689 21.8236 25.5906 22.1701 26.5137C23.3847 26.1833 24.6427 26.0395 25.9008 26.0872C25.9224 25.7444 25.9414 25.4232 25.9603 25.102C26.0393 23.9616 26.314 22.8432 26.7725 21.7955C27.1422 20.974 27.3929 20.1043 27.517 19.2124C27.6629 18.0446 27.63 16.8615 27.4196 15.7035C27.4196 15.6388 27.3952 15.5713 27.3871 15.5065C27.3871 15.5065 27.3871 15.4795 27.4033 15.4282C27.6443 15.4849 27.8879 15.5308 28.1262 15.5956C28.3644 15.6603 28.6 15.7683 28.8436 15.8169C29.1414 15.8736 29.1983 16.0679 29.2226 16.3189C29.3169 17.3538 29.3069 18.3955 29.1929 19.4284C29.3797 19.4527 29.5611 19.477 29.7343 19.4932C30.8628 19.6353 31.9602 19.9608 32.9831 20.4568C33.3296 20.6037 33.6839 20.7317 34.0444 20.84C34.157 20.8686 34.2626 20.9196 34.355 20.99C34.4473 21.0604 34.5243 21.1487 34.5815 21.2496C34.6387 21.3505 34.6748 21.4619 34.6876 21.577C34.7004 21.6922 34.6898 21.8088 34.6562 21.9197C34.6204 22.0254 34.5637 22.1229 34.4895 22.2065C34.4154 22.2901 34.3252 22.358 34.2243 22.4063C34.1233 22.4546 34.0138 22.4822 33.902 22.4877C33.7902 22.4931 33.6784 22.4762 33.5733 22.4379C32.7611 22.1464 31.9489 21.8306 31.153 21.5229C30.4618 21.279 29.7384 21.1381 29.0061 21.1046C28.9779 21.0987 28.9489 21.0986 28.9207 21.1041C28.8925 21.1097 28.8658 21.1209 28.842 21.137C28.8183 21.1532 28.798 21.1739 28.7825 21.198C28.7669 21.2221 28.7564 21.2491 28.7516 21.2773C28.4808 22.0682 28.1776 22.8563 27.8988 23.6472C27.674 24.4826 27.5754 25.3469 27.6064 26.2114C28.0369 26.3193 28.4808 26.4057 28.9032 26.5461C29.5963 26.7755 30.2839 27.0292 30.9634 27.291C31.1717 27.3701 31.3399 27.5285 31.431 27.7312C31.5221 27.9339 31.5287 28.1644 31.4494 28.372C31.3701 28.5796 31.2113 28.7473 31.0079 28.8382C30.8046 28.929 30.5734 28.9356 30.3651 28.8565C29.6694 28.6109 28.9871 28.3167 28.2832 28.1089C27.2075 27.7961 26.0836 27.6818 24.9668 27.7715C24.262 27.8336 23.5609 27.9309 22.8659 28.063C22.4625 28.1305 22.56 28.0873 22.56 28.4733C22.56 29.2533 22.5843 30.0361 22.5248 30.8134C22.4157 31.8786 22.1149 32.9155 21.6368 33.8743C21.561 34.0362 21.4987 34.2009 21.4256 34.3628C21.3849 34.4748 21.32 34.5765 21.2354 34.6607C21.1508 34.7448 21.0486 34.8092 20.9361 34.8494C20.8236 34.8897 20.7036 34.9046 20.5847 34.8933C20.4657 34.882 20.3507 34.8446 20.2479 34.7839C20.0618 34.676 19.9221 34.5034 19.8557 34.2992C19.7892 34.095 19.8007 33.8735 19.8879 33.6772C20.1369 33.0564 20.4131 32.4437 20.6188 31.8067C20.9437 30.7945 20.941 29.7473 20.8896 28.6973C20.83 27.5151 20.3752 26.4543 19.9149 25.3881C19.6731 24.8304 19.4986 24.246 19.3951 23.6472Z" fill="#49AA39"/>
<path d="M12.0935 6.15931C12.0583 6.29967 12.0177 6.42923 11.996 6.55069C11.931 6.91238 11.8688 7.27676 11.8065 7.63035C11.7875 7.74912 11.7713 7.84898 11.6062 7.86248C10.5747 7.93536 9.65419 8.36452 8.72287 8.7586C7.82987 9.1369 6.88041 9.3658 5.91269 9.43609C5.00982 9.50986 4.10143 9.47997 3.20539 9.34702C3.09495 9.33568 2.98791 9.30241 2.89058 9.24915C2.79326 9.19589 2.70762 9.12373 2.63872 9.03693C2.56983 8.95013 2.51908 8.85044 2.48946 8.74377C2.45985 8.63709 2.45197 8.52557 2.4663 8.41581C2.4806 8.30566 2.51669 8.19943 2.57247 8.10328C2.62825 8.00714 2.70262 7.92298 2.79126 7.8557C2.8799 7.78842 2.98105 7.73934 3.08885 7.71132C3.19665 7.68329 3.30896 7.67687 3.41927 7.69243C4.20709 7.73292 4.99763 7.74102 5.78816 7.75991C5.84443 7.75866 5.90054 7.75325 5.95601 7.74372C5.92894 7.25247 5.87479 6.77742 5.8775 6.29967C5.8775 5.70585 5.91811 5.10664 5.97496 4.51552C5.98214 4.40101 6.01286 4.28919 6.06522 4.18701C6.11758 4.08483 6.19046 3.99448 6.27933 3.92158C6.36819 3.84867 6.47115 3.79477 6.5818 3.76322C6.69245 3.73166 6.80842 3.72314 6.92252 3.73817C7.03844 3.75418 7.14981 3.7938 7.2497 3.85457C7.3496 3.91535 7.43588 3.99597 7.50318 4.09142C7.57048 4.18687 7.61735 4.29511 7.64088 4.4094C7.66441 4.52369 7.66409 4.64159 7.63995 4.75575C7.54222 5.55114 7.53042 6.3547 7.60476 7.1526C7.6161 7.23181 7.63237 7.31024 7.65349 7.38743C9.08024 6.76932 10.488 6.14851 12.0935 6.15931Z" fill="#49AA39"/>
<path d="M6.6952 12.8535C6.6952 13.3933 6.6952 13.9197 6.6952 14.4487C6.68604 14.4733 6.67123 14.4954 6.65195 14.5132C6.63267 14.531 6.60946 14.5441 6.5842 14.5513C5.46337 14.6539 4.45084 15.1154 3.41395 15.4987C2.60257 15.7961 1.7565 15.9893 0.896156 16.0736C0.683887 16.0852 0.474965 16.0171 0.310588 15.8827C0.14621 15.7483 0.0383093 15.5573 0.00816115 15.3475C-0.022817 15.13 0.0338328 14.9091 0.16573 14.7331C0.297628 14.5571 0.494047 14.4403 0.712059 14.4082C1.80348 14.267 2.8686 13.9688 3.87419 13.5229C4.77562 13.1603 5.72656 12.9346 6.6952 12.8535Z" fill="#49AA39"/>
<path d="M13.0844 29.7959C13.707 29.9282 14.3108 30.0658 14.9145 30.1873C14.951 30.198 14.9848 30.2163 15.0137 30.241C15.0426 30.2656 15.066 30.2961 15.0823 30.3303C15.4845 31.2579 15.7437 32.2407 15.8512 33.2454C15.881 33.5153 15.8972 33.7853 15.9162 34.0552C15.9373 34.2817 15.8673 34.5074 15.7216 34.6825C15.5759 34.8576 15.3664 34.9679 15.1392 34.9891C14.9192 35.0062 14.7014 34.9358 14.5334 34.7931C14.3654 34.6504 14.261 34.4472 14.2431 34.2279C14.2119 33.7133 14.1477 33.2012 14.0509 32.6948C13.8695 31.9714 13.6014 31.2669 13.3659 30.5544C13.2793 30.3033 13.1791 30.0496 13.0844 29.7959Z" fill="#49AA39"/>
<path d="M6.55435 27.8551C6.18074 27.9334 5.80984 27.9928 5.44977 28.0899C5.0897 28.1871 4.74587 28.3113 4.39934 28.4354C4.20089 28.5166 3.97901 28.52 3.77817 28.4449C3.57733 28.3698 3.41239 28.2218 3.31641 28.0305C3.22076 27.8415 3.20318 27.6226 3.26745 27.4208C3.33172 27.219 3.47272 27.0503 3.66024 26.9509C3.95364 26.8001 4.261 26.6781 4.57802 26.5865C5.00848 26.4623 5.44977 26.3625 5.88835 26.268C5.92974 26.2638 5.97154 26.2692 6.01051 26.2837C6.04948 26.2982 6.08457 26.3214 6.11306 26.3517C6.27279 26.8186 6.41357 27.2883 6.55976 27.7606C6.56426 27.7922 6.56242 27.8243 6.55435 27.8551Z" fill="#49AA39"/>
<path d="M26.1173 28.603C26.7156 28.6894 27.2625 28.765 27.8067 28.854C27.8391 28.8656 27.8685 28.8842 27.8929 28.9085C27.9172 28.9327 27.9358 28.9621 27.9474 28.9944C28.1424 29.5018 28.3238 30.0147 28.516 30.5248C28.5875 30.68 28.61 30.8532 28.5805 31.0215C28.551 31.1897 28.4709 31.345 28.3508 31.4668C28.2422 31.591 28.0959 31.6764 27.9342 31.71C27.7724 31.7437 27.604 31.7237 27.4547 31.6531C27.2589 31.572 27.0979 31.4248 26.9999 31.2374C26.6994 30.4735 26.4422 29.6881 26.1742 28.9107C26.148 28.8096 26.129 28.7068 26.1173 28.603Z" fill="#49AA39"/>
</g>
<defs>
<clipPath id="clip0_127_110">
<rect width="35" height="35" fill="white"/>
</clipPath>
</defs>
</svg>
