<?xml version="1.0" encoding="utf-8"?>
<!-- Generator: Adobe Illustrator 26.0.3, SVG Export Plug-In . SVG Version: 6.00 Build 0)  -->
<svg version="1.1" id="图层_1" xmlns="http://www.w3.org/2000/svg" xmlns:xlink="http://www.w3.org/1999/xlink" x="0px" y="0px"
	 viewBox="0 0 200 223.5" style="enable-background:new 0 0 200 223.5;" xml:space="preserve">
<style type="text/css">
	.st0{fill:none;stroke:#CDCDCD;stroke-width:12;stroke-linecap:round;stroke-linejoin:round;stroke-miterlimit:10;}
</style>
<path class="st0" d="M28.7,39.5c15.6-6.6,52.2-17.4,79.3,12.5c0,0,42-6.3,69.4,24.2c4.2,4.7,6.5,10.8,6.5,17.1l0,21
	c0,5.4-4.3,9.9-9.8,10.1c-13.4,0.4-39.4-1.6-71.6-18.7c0,0,1.5,23.7-6.4,37.5c-6.3,11.1-18.4,26-22.9,39.9c-1.9,6-7.6,9.9-13.9,9.9
	c-9.6,0-22.7,0-30.8,0c-4.1,0-7.3-3.3-7.3-7.3l0-134.7C21.1,46,24.1,41.5,28.7,39.5z"/>
<path class="st0" d="M21.1,135c22.8,0,59.8,2.2,59.8-41.5"/>
<line class="st0" x1="21.2" y1="165.5" x2="41.8" y2="165.5"/>
</svg>
