<?xml version="1.0" encoding="utf-8"?>
<!-- Generator: Adobe Illustrator 26.0.3, SVG Export Plug-In . SVG Version: 6.00 Build 0)  -->
<svg version="1.1" id="图层_1" xmlns="http://www.w3.org/2000/svg" xmlns:xlink="http://www.w3.org/1999/xlink" x="0px" y="0px"
	 viewBox="0 0 33 33.1" style="enable-background:new 0 0 33 33.1;" xml:space="preserve">
<style type="text/css">
	.st0{fill-rule:evenodd;clip-rule:evenodd;fill:#49AA39;}
</style>
<path class="st0" d="M7.8,11.1c0-0.7,0.6-1.3,1.3-1.3h14.1c0.7,0,1.3,0.6,1.3,1.3c0,0.7-0.6,1.3-1.3,1.3H9.1
	C8.4,12.3,7.8,11.8,7.8,11.1z"/>
<path class="st0" d="M7.8,17.1c0-0.7,0.6-1.3,1.3-1.3h14.1c0.7,0,1.3,0.6,1.3,1.3s-0.6,1.3-1.3,1.3H9.1C8.4,18.4,7.8,17.8,7.8,17.1z
	"/>
<path class="st0" d="M6.6,28.4h22c1.2,0,2.3-0.5,3.1-1.3c0.8-0.8,1.3-1.9,1.3-3.1V4.4c0-1.2-0.5-2.3-1.3-3.1C30.9,0.5,29.8,0,28.6,0
	H4.4C3.2,0,2.1,0.5,1.3,1.3C0.5,2.1,0,3.2,0,4.4v27.7c0,0.1,0,0.2,0,0.3c0,0.1,0.1,0.2,0.2,0.3c0.1,0.2,0.3,0.3,0.6,0.3
	c0.3,0,0.5-0.1,0.7-0.3L6.6,28.4z M2.6,28.5l3.1-2.7h22.9c0.6,0,1-0.2,1.4-0.6c0.3-0.3,0.5-0.7,0.5-1.3V4.4c0-0.6-0.2-1-0.5-1.3
	c-0.3-0.3-0.7-0.5-1.3-0.5H4.4c-0.6,0-1,0.2-1.3,0.5C2.8,3.4,2.6,3.8,2.6,4.4V28.5z"/>
</svg>
