<?xml version="1.0" encoding="utf-8"?>
<!-- Generator: Adobe Illustrator 26.0.3, SVG Export Plug-In . SVG Version: 6.00 Build 0)  -->
<svg version="1.1" id="图层_1" xmlns="http://www.w3.org/2000/svg" xmlns:xlink="http://www.w3.org/1999/xlink" x="0px" y="0px"
	 viewBox="0 0 35 35" style="enable-background:new 0 0 35 35;" xml:space="preserve">
<style type="text/css">
	.st0{fill:#DB6161;}
</style>
<path class="st0" d="M18.5,21.4v-9c0-0.5-0.4-1-1-1h-0.1c-0.5,0-1,0.4-1,1v9c-1.5,0.4-2.6,1.7-2.6,3.3c0,1.9,1.6,3.5,3.6,3.5
	c2,0,3.6-1.6,3.6-3.5C21.1,23.1,20,21.8,18.5,21.4z M23.8,17.4c-0.2-0.2-0.4-0.4-0.4-0.7V6.5c0-3.2-2.7-5.8-5.9-5.8
	c-3.3,0-5.9,2.6-5.9,5.8v9.9c0,0.4-0.2,0.8-0.5,1.1c-2.1,1.8-3.4,4.4-3.4,7.2c0,5.3,4.4,9.5,9.8,9.5c5.4,0,9.8-4.3,9.8-9.5
	C27.3,21.9,26,19.2,23.8,17.4z M17.5,31.2c-3.7,0-6.7-2.9-6.7-6.5c0-2.2,1.2-4.3,3.1-5.5l0.5-0.3c0.2-0.1,0.2-0.3,0.2-0.4V6.5
	c0-1.5,1.3-2.8,2.8-2.8c1.6,0,2.8,1.2,2.8,2.8v11.9c0,0.2,0.1,0.3,0.2,0.4l0.5,0.3c2,1.2,3.1,3.3,3.1,5.5
	C24.2,28.3,21.2,31.2,17.5,31.2z"/>
</svg>
