<svg id="图层_1" data-name="图层 1" xmlns="http://www.w3.org/2000/svg" viewBox="0 0 200 165.04"><defs><style>.cls-1{fill:#cdcdcd;}</style></defs><path class="cls-1" d="M173.63,165H26.37A26.41,26.41,0,0,1,0,138.67V26.37A26.41,26.41,0,0,1,26.37,0H173.63A26.41,26.41,0,0,1,200,26.37v112.3A26.41,26.41,0,0,1,173.63,165ZM26.37,17.58a8.8,8.8,0,0,0-8.79,8.79v112.3a8.8,8.8,0,0,0,8.79,8.79H173.63a8.8,8.8,0,0,0,8.79-8.79V26.37a8.8,8.8,0,0,0-8.79-8.79Z" transform="translate(0 0)"/><path class="cls-1" d="M41.8,119.57a8.72,8.72,0,0,1-5.1-1.64,8.81,8.81,0,0,1-2.05-12.27L59.9,70.25a20.34,20.34,0,0,1,28.38-4.76L119.9,88a2.78,2.78,0,0,0,3.87-.65l27.3-38.22a8.79,8.79,0,0,1,14.32,10.21L138.07,97.6a20.37,20.37,0,0,1-28.38,4.74L78.07,79.8A2.7,2.7,0,0,0,76,79.34a2.75,2.75,0,0,0-1.8,1.13L49,115.88A8.77,8.77,0,0,1,41.8,119.57Z" transform="translate(0 0)"/></svg>